<svg xmlns="http://www.w3.org/2000/svg" viewBox="0 0 1600 1000" role="img" aria-labelledby="title desc">
  <title id="title">从 Prompt 到 Skill 任务闭环封面</title>
  <desc id="desc">对话输入经过模块化流程转化为可验收任务的蓝色流程图</desc>
  <defs>
    <linearGradient id="bg" x1="0" y1="0" x2="1" y2="1"><stop stop-color="#fff"/><stop offset="1" stop-color="#e9f3ff"/></linearGradient>
    <linearGradient id="blue" x1="0" y1="0" x2="1" y2="1"><stop stop-color="#60a5fa"/><stop offset="1" stop-color="#2563eb"/></linearGradient>
    <filter id="shadow" x="-30%" y="-30%" width="160%" height="160%"><feDropShadow dx="0" dy="18" stdDeviation="22" flood-color="#17325c" flood-opacity=".15"/></filter>
  </defs>
  <rect width="1600" height="1000" fill="url(#bg)"/>
  <path d="M0 0h409L218 240 0 366z" fill="#dbeafe"/>
  <path d="M1600 1000h-420l190-235 230-114z" fill="#dbeafe"/>
  <g fill="none" stroke="#9dc5f5" stroke-width="5" opacity=".66"><circle cx="1370" cy="206" r="114"/><circle cx="1370" cy="206" r="72"/><circle cx="244" cy="804" r="116"/><circle cx="244" cy="804" r="72"/></g>
  <g filter="url(#shadow)">
    <rect x="116" y="322" width="382" height="270" rx="42" fill="#fff" stroke="#172033" stroke-width="5"/>
    <path d="m228 592-58 83 119-64" fill="#fff" stroke="#172033" stroke-width="5" stroke-linejoin="round"/>
    <circle cx="203" cy="429" r="18" fill="#2563eb"/>
    <rect x="242" y="414" width="194" height="17" rx="9" fill="#172033"/>
    <rect x="171" y="482" width="258" height="14" rx="7" fill="#9dafc4"/>
    <rect x="171" y="524" width="201" height="14" rx="7" fill="#d1ddea"/>
  </g>
  <path d="M524 468h144" stroke="#2563eb" stroke-width="14" stroke-linecap="round"/>
  <path d="m630 431 42 37-42 37" fill="none" stroke="#2563eb" stroke-width="14" stroke-linecap="round" stroke-linejoin="round"/>
  <g filter="url(#shadow)">
    <rect x="694" y="209" width="260" height="220" rx="34" fill="#172033"/>
    <circle cx="758" cy="273" r="22" fill="#60a5fa"/>
    <rect x="798" y="260" width="108" height="15" rx="8" fill="#fff" opacity=".9"/>
    <rect x="744" y="330" width="162" height="14" rx="7" fill="#8fa9c9"/>
    <rect x="744" y="370" width="116" height="14" rx="7" fill="#5d7594"/>
    <rect x="694" y="571" width="260" height="220" rx="34" fill="#fff" stroke="#a7c9f3" stroke-width="5"/>
    <rect x="744" y="625" width="160" height="22" rx="11" fill="#2563eb"/>
    <rect x="744" y="683" width="162" height="14" rx="7" fill="#8fa2b8"/>
    <rect x="744" y="723" width="116" height="14" rx="7" fill="#cdd9e7"/>
    <rect x="1028" y="391" width="260" height="220" rx="34" fill="url(#blue)"/>
    <g fill="#fff"><rect x="1075" y="438" width="166" height="18" rx="9" opacity=".92"/><rect x="1075" y="486" width="121" height="14" rx="7" opacity=".62"/><circle cx="1158" cy="558" r="25" opacity=".95"/></g>
  </g>
  <path d="M956 320h70c71 0 120 34 120 71M824 430v139M954 681h70c73 0 122-34 122-70" fill="none" stroke="#2563eb" stroke-width="10" stroke-linecap="round" stroke-dasharray="4 23"/>
  <path d="M1311 501h134" stroke="#172033" stroke-width="14" stroke-linecap="round"/>
  <path d="m1409 464 42 37-42 37" fill="none" stroke="#172033" stroke-width="14" stroke-linecap="round" stroke-linejoin="round"/>
  <g filter="url(#shadow)"><circle cx="1471" cy="501" r="84" fill="#fff" stroke="#2563eb" stroke-width="6"/><path d="m1434 500 27 28 51-59" fill="none" stroke="#2563eb" stroke-width="18" stroke-linecap="round" stroke-linejoin="round"/></g>
</svg>
